<mxfile host="65bd71144e">
    <diagram id="neUq3fEYfLOmWSvZBi6R" name="Page-1">
        <mxGraphModel dx="760" dy="488" grid="0" gridSize="10" guides="1" tooltips="1" connect="1" arrows="1" fold="1" page="1" pageScale="1" pageWidth="850" pageHeight="1100" background="none" math="0" shadow="0">
            <root>
                <mxCell id="0"/>
                <mxCell id="1" parent="0"/>
                <mxCell id="70" style="edgeStyle=none;html=1;entryX=0.444;entryY=-0.444;entryDx=0;entryDy=0;entryPerimeter=0;" parent="1" source="67" target="71" edge="1">
                    <mxGeometry relative="1" as="geometry">
                        <mxPoint x="123.5" y="562" as="targetPoint"/>
                    </mxGeometry>
                </mxCell>
                <mxCell id="67" value="" style="whiteSpace=wrap;html=1;" parent="1" vertex="1">
                    <mxGeometry x="104" y="178.13" width="39" height="298" as="geometry"/>
                </mxCell>
                <mxCell id="5" value="Program Flow" style="text;html=1;align=center;verticalAlign=middle;resizable=0;points=[];autosize=1;strokeColor=none;fillColor=none;" parent="1" vertex="1">
                    <mxGeometry x="130" y="134" width="85" height="18" as="geometry"/>
                </mxCell>
                <mxCell id="12" value="" style="edgeStyle=none;html=1;" parent="1" source="6" target="11" edge="1">
                    <mxGeometry relative="1" as="geometry"/>
                </mxCell>
                <mxCell id="41" style="edgeStyle=none;html=1;fillColor=#262A10;strokeColor=#F09E24;entryX=0.5;entryY=0;entryDx=0;entryDy=0;entryPerimeter=0;" parent="1" source="6" target="42" edge="1">
                    <mxGeometry relative="1" as="geometry">
                        <mxPoint x="121" y="232" as="targetPoint"/>
                    </mxGeometry>
                </mxCell>
                <mxCell id="6" value="fun(5)" style="text;html=1;align=center;verticalAlign=middle;resizable=0;points=[];autosize=2;strokeColor=none;fillColor=none;" parent="1" vertex="1">
                    <mxGeometry x="145" y="158" width="41" height="18" as="geometry"/>
                </mxCell>
                <mxCell id="72" style="edgeStyle=none;html=1;" edge="1" parent="1" source="10">
                    <mxGeometry relative="1" as="geometry">
                        <mxPoint x="248" y="167" as="targetPoint"/>
                    </mxGeometry>
                </mxCell>
                <mxCell id="10" value="&amp;nbsp;=&amp;nbsp; 15" style="text;html=1;align=center;verticalAlign=middle;resizable=0;points=[];autosize=1;strokeColor=none;fillColor=none;" parent="1" vertex="1">
                    <mxGeometry x="189" y="158" width="40" height="18" as="geometry"/>
                </mxCell>
                <mxCell id="14" value="" style="edgeStyle=none;html=1;" parent="1" source="11" target="13" edge="1">
                    <mxGeometry relative="1" as="geometry"/>
                </mxCell>
                <mxCell id="54" style="edgeStyle=none;html=1;entryX=0.235;entryY=-0.278;entryDx=0;entryDy=0;entryPerimeter=0;strokeColor=#F09E24;fillColor=#262A10;" parent="1" source="11" target="33" edge="1">
                    <mxGeometry relative="1" as="geometry"/>
                </mxCell>
                <mxCell id="11" value="fun(4)" style="text;html=1;align=center;verticalAlign=middle;resizable=0;points=[];autosize=1;strokeColor=none;fillColor=none;" parent="1" vertex="1">
                    <mxGeometry x="145" y="209" width="41" height="18" as="geometry"/>
                </mxCell>
                <mxCell id="16" value="" style="edgeStyle=none;html=1;" parent="1" source="13" target="15" edge="1">
                    <mxGeometry relative="1" as="geometry"/>
                </mxCell>
                <mxCell id="55" style="edgeStyle=none;html=1;entryX=0.118;entryY=0.042;entryDx=0;entryDy=0;entryPerimeter=0;strokeColor=#F09E24;fillColor=#262A10;" parent="1" source="13" target="36" edge="1">
                    <mxGeometry relative="1" as="geometry"/>
                </mxCell>
                <mxCell id="13" value="fun(3)" style="text;html=1;align=center;verticalAlign=middle;resizable=0;points=[];autosize=1;strokeColor=none;fillColor=none;" parent="1" vertex="1">
                    <mxGeometry x="145" y="265" width="41" height="18" as="geometry"/>
                </mxCell>
                <mxCell id="18" value="" style="edgeStyle=none;html=1;" parent="1" source="15" target="17" edge="1">
                    <mxGeometry relative="1" as="geometry"/>
                </mxCell>
                <mxCell id="57" style="edgeStyle=none;html=1;entryX=0.294;entryY=-0.111;entryDx=0;entryDy=0;entryPerimeter=0;strokeColor=#F09E24;fillColor=#262A10;" parent="1" source="15" target="38" edge="1">
                    <mxGeometry relative="1" as="geometry"/>
                </mxCell>
                <mxCell id="15" value="fun(2)" style="text;html=1;align=center;verticalAlign=middle;resizable=0;points=[];autosize=1;strokeColor=none;fillColor=none;" parent="1" vertex="1">
                    <mxGeometry x="145" y="320" width="41" height="18" as="geometry"/>
                </mxCell>
                <mxCell id="20" value="" style="edgeStyle=none;html=1;" parent="1" source="17" target="19" edge="1">
                    <mxGeometry relative="1" as="geometry"/>
                </mxCell>
                <mxCell id="58" style="edgeStyle=none;html=1;entryX=0.235;entryY=-0.111;entryDx=0;entryDy=0;entryPerimeter=0;strokeColor=#F09E24;fillColor=#262A10;" parent="1" source="17" target="40" edge="1">
                    <mxGeometry relative="1" as="geometry"/>
                </mxCell>
                <mxCell id="17" value="fun(1)" style="text;html=1;align=center;verticalAlign=middle;resizable=0;points=[];autosize=1;strokeColor=none;fillColor=none;" parent="1" vertex="1">
                    <mxGeometry x="145" y="383" width="41" height="18" as="geometry"/>
                </mxCell>
                <mxCell id="22" value="" style="edgeStyle=none;html=1;" parent="1" source="19" target="21" edge="1">
                    <mxGeometry relative="1" as="geometry"/>
                </mxCell>
                <mxCell id="19" value="fun(0)" style="text;html=1;align=center;verticalAlign=middle;resizable=0;points=[];autosize=1;strokeColor=none;fillColor=none;" parent="1" vertex="1">
                    <mxGeometry x="145" y="444" width="41" height="18" as="geometry"/>
                </mxCell>
                <mxCell id="21" value="0" style="text;html=1;align=center;verticalAlign=middle;resizable=0;points=[];autosize=1;strokeColor=none;fillColor=none;" parent="1" vertex="1">
                    <mxGeometry x="157" y="505" width="17" height="18" as="geometry"/>
                </mxCell>
                <mxCell id="23" value="+" style="text;html=1;align=center;verticalAlign=middle;resizable=0;points=[];autosize=1;strokeColor=none;fillColor=none;" parent="1" vertex="1">
                    <mxGeometry x="195" y="444" width="17" height="18" as="geometry"/>
                </mxCell>
                <mxCell id="24" value="+" style="text;html=1;align=center;verticalAlign=middle;resizable=0;points=[];autosize=1;strokeColor=none;fillColor=none;" parent="1" vertex="1">
                    <mxGeometry x="195" y="322" width="17" height="18" as="geometry"/>
                </mxCell>
                <mxCell id="25" value="+" style="text;html=1;align=center;verticalAlign=middle;resizable=0;points=[];autosize=1;strokeColor=none;fillColor=none;" parent="1" vertex="1">
                    <mxGeometry x="198" y="265" width="17" height="18" as="geometry"/>
                </mxCell>
                <mxCell id="26" value="+" style="text;html=1;align=center;verticalAlign=middle;resizable=0;points=[];autosize=1;strokeColor=none;fillColor=none;" parent="1" vertex="1">
                    <mxGeometry x="195" y="387" width="17" height="18" as="geometry"/>
                </mxCell>
                <mxCell id="27" value="+" style="text;html=1;align=center;verticalAlign=middle;resizable=0;points=[];autosize=1;strokeColor=none;fillColor=none;" parent="1" vertex="1">
                    <mxGeometry x="195" y="212" width="17" height="18" as="geometry"/>
                </mxCell>
                <mxCell id="33" value="4" style="text;html=1;align=center;verticalAlign=middle;resizable=0;points=[];autosize=1;strokeColor=none;fillColor=none;" parent="1" vertex="1">
                    <mxGeometry x="222" y="265" width="17" height="18" as="geometry"/>
                </mxCell>
                <mxCell id="36" value="3" style="text;html=1;align=center;verticalAlign=middle;resizable=0;points=[];autosize=1;strokeColor=none;fillColor=none;" parent="1" vertex="1">
                    <mxGeometry x="222" y="320" width="17" height="18" as="geometry"/>
                </mxCell>
                <mxCell id="38" value="2" style="text;html=1;align=center;verticalAlign=middle;resizable=0;points=[];autosize=1;strokeColor=none;fillColor=none;" parent="1" vertex="1">
                    <mxGeometry x="219" y="387" width="17" height="18" as="geometry"/>
                </mxCell>
                <mxCell id="40" value="1" style="text;html=1;align=center;verticalAlign=middle;resizable=0;points=[];autosize=1;strokeColor=none;fillColor=none;" parent="1" vertex="1">
                    <mxGeometry x="225" y="444" width="17" height="18" as="geometry"/>
                </mxCell>
                <mxCell id="42" value="5" style="text;html=1;align=center;verticalAlign=middle;resizable=0;points=[];autosize=1;strokeColor=none;fillColor=none;" parent="1" vertex="1">
                    <mxGeometry x="222" y="209" width="17" height="18" as="geometry"/>
                </mxCell>
                <mxCell id="43" value="=&amp;nbsp; 15" style="text;html=1;align=center;verticalAlign=middle;resizable=0;points=[];autosize=1;strokeColor=none;fillColor=none;" parent="1" vertex="1">
                    <mxGeometry x="247" y="209" width="37" height="18" as="geometry"/>
                </mxCell>
                <mxCell id="45" value="=&amp;nbsp; &amp;nbsp;10" style="text;html=1;align=center;verticalAlign=middle;resizable=0;points=[];autosize=1;strokeColor=none;fillColor=none;" parent="1" vertex="1">
                    <mxGeometry x="242" y="263" width="40" height="18" as="geometry"/>
                </mxCell>
                <mxCell id="47" value="=&amp;nbsp; 6" style="text;html=1;align=center;verticalAlign=middle;resizable=0;points=[];autosize=1;strokeColor=none;fillColor=none;" parent="1" vertex="1">
                    <mxGeometry x="250.5" y="320" width="30" height="18" as="geometry"/>
                </mxCell>
                <mxCell id="48" value="= 3" style="text;html=1;align=center;verticalAlign=middle;resizable=0;points=[];autosize=1;strokeColor=none;fillColor=none;" parent="1" vertex="1">
                    <mxGeometry x="255" y="387" width="27" height="18" as="geometry"/>
                </mxCell>
                <mxCell id="49" value="=&amp;nbsp; 1" style="text;html=1;align=center;verticalAlign=middle;resizable=0;points=[];autosize=1;strokeColor=none;fillColor=none;" parent="1" vertex="1">
                    <mxGeometry x="255" y="444" width="30" height="18" as="geometry"/>
                </mxCell>
                <mxCell id="50" value="" style="shape=singleArrow;whiteSpace=wrap;html=1;arrowWidth=0.4;arrowSize=0.4;rotation=90;" parent="1" vertex="1">
                    <mxGeometry x="116" y="316.25" width="383.5" height="21.75" as="geometry"/>
                </mxCell>
                <mxCell id="51" value="Program Continues" style="text;html=1;align=center;verticalAlign=middle;resizable=0;points=[];autosize=1;strokeColor=none;fillColor=none;" parent="1" vertex="1">
                    <mxGeometry x="315" y="136" width="113" height="18" as="geometry"/>
                </mxCell>
                <mxCell id="52" value="" style="shape=singleArrow;whiteSpace=wrap;html=1;arrowWidth=0.4;arrowSize=0.4;rotation=-90;strokeColor=#F09E24;" parent="1" vertex="1">
                    <mxGeometry x="-122.995" y="318.125" width="383.5" height="21.75" as="geometry"/>
                </mxCell>
                <mxCell id="62" value="( 10 )" style="text;html=1;align=center;verticalAlign=middle;resizable=0;points=[];autosize=1;strokeColor=none;fillColor=none;" parent="1" vertex="1">
                    <mxGeometry x="103" y="209" width="38" height="18" as="geometry"/>
                </mxCell>
                <mxCell id="63" value="( 6 )" style="text;html=1;align=center;verticalAlign=middle;resizable=0;points=[];autosize=1;strokeColor=none;fillColor=none;" parent="1" vertex="1">
                    <mxGeometry x="106.5" y="263" width="31" height="18" as="geometry"/>
                </mxCell>
                <mxCell id="64" value="(&amp;nbsp; 3 )" style="text;html=1;align=center;verticalAlign=middle;resizable=0;points=[];autosize=1;strokeColor=none;fillColor=none;" parent="1" vertex="1">
                    <mxGeometry x="102" y="320" width="35" height="18" as="geometry"/>
                </mxCell>
                <mxCell id="65" value="( 1 )" style="text;html=1;align=center;verticalAlign=middle;resizable=0;points=[];autosize=1;strokeColor=none;fillColor=none;" parent="1" vertex="1">
                    <mxGeometry x="108" y="383" width="31" height="18" as="geometry"/>
                </mxCell>
                <mxCell id="66" value="( 0 )" style="text;html=1;align=center;verticalAlign=middle;resizable=0;points=[];autosize=1;strokeColor=none;fillColor=none;" parent="1" vertex="1">
                    <mxGeometry x="104" y="444" width="31" height="18" as="geometry"/>
                </mxCell>
                <mxCell id="59" value="Program Returns" style="text;html=1;align=center;verticalAlign=middle;resizable=0;points=[];autosize=1;strokeColor=none;fillColor=none;" parent="1" vertex="1">
                    <mxGeometry x="11" y="523" width="101" height="18" as="geometry"/>
                </mxCell>
                <mxCell id="71" value="Values return by function" style="text;html=1;align=center;verticalAlign=middle;resizable=0;points=[];autosize=1;strokeColor=none;fillColor=none;" parent="1" vertex="1">
                    <mxGeometry x="62" y="569" width="142" height="18" as="geometry"/>
                </mxCell>
                <mxCell id="73" value="Output" style="text;html=1;align=center;verticalAlign=middle;resizable=0;points=[];autosize=1;strokeColor=none;fillColor=none;" vertex="1" parent="1">
                    <mxGeometry x="248" y="158" width="46" height="18" as="geometry"/>
                </mxCell>
            </root>
        </mxGraphModel>
    </diagram>
</mxfile>